<?xml version="1.0" encoding="utf-8"?>
<!-- Generator: Adobe Illustrator 21.0.2, SVG Export Plug-In . SVG Version: 6.00 Build 0)  -->
<svg version="1.1" id="Layer_1" xmlns="http://www.w3.org/2000/svg" xmlns:xlink="http://www.w3.org/1999/xlink" x="0px" y="0px"
	 viewBox="0 0 1024 1024" style="enable-background:new 0 0 1024 1024;" xml:space="preserve">
<style type="text/css">
	.st0{fill:#FFFFFF;}
</style>
<g>
	<polygon class="st0" points="189.2,834.8 71,393.8 393.8,71 834.8,189.2 953,630.2 630.2,953 	"/>
	<path d="M408.2,124.5l193.7,51.9l193.7,51.9l51.9,193.7l51.9,193.7L615.8,899.5L228.3,795.7L124.5,408.2L408.2,124.5 M379.5,17.4
		l-362,362L150,874l494.6,132.5l362-362l-66.3-247.3L874,150L626.8,83.7L379.5,17.4L379.5,17.4z"/>
</g>
<g>
	<polygon class="st0" points="370.2,653.8 318.3,460.1 460.1,318.3 653.8,370.2 705.7,563.9 563.9,705.7 	"/>
	<path d="M474.4,371.8l140.2,37.6l37.6,140.2L549.6,652.2l-140.2-37.6l-37.6-140.2L474.4,371.8 M445.7,264.7l-181,181L331,693
		l247.3,66.3l181-181L693,331L445.7,264.7L445.7,264.7z"/>
</g>
<g>
	<polygon points="874,150 940.3,397.2 693,331 626.8,83.7 	"/>
</g>
<g>
	<polygon points="331,693 397.2,940.3 150,874 83.7,626.8 	"/>
</g>
</svg>
