<svg xmlns="http://www.w3.org/2000/svg" viewBox="0 0 1240 256"><defs><style>.cls-1{fill:#212121;}.cls-2{fill:#fff;}</style></defs><title>logo-text</title><g id="logo-text"><g id="logo-text-2" data-name="logo-text"><path class="cls-1" d="M401.03809,131.76172q0,30.43506-15.61035,47.50488-15.61084,17.07275-43.46191,17.07031-17.40967,0-30.77148-7.86133a51.86176,51.86176,0,0,1-20.55176-22.57324q-7.188-14.71143-7.1875-34.14062,0-30.20947,15.498-47.168,15.498-16.95557,43.68652-16.958,26.95313,0,42.67578,17.35156Q401.0376,102.33691,401.03809,131.76172Zm-90.40527,0q0,43.01514,31.78223,43.0127,31.44287,0,31.44531-43.0127,0-42.561-31.66992-42.56348-16.62158,0-24.08887,11.00586Q310.63086,111.2124,310.63281,131.76172Z"/><path class="cls-1" d="M518.958,194.09082,515.252,177.80664H513.9043a37.43765,37.43765,0,0,1-15.667,13.58887,52.38768,52.38768,0,0,1-23.19043,4.94141q-22.57324,0-33.69141-11.23047-11.11816-11.228-11.11816-34.02832V69.88184h26.61621v76.5918q0,14.26318,5.83984,21.39453,5.8374,7.13232,18.30566,7.13086,16.61865,0,24.42578-9.93945,7.80469-9.9375,7.80566-33.29785V69.88184h26.50391v124.209Z"/><path class="cls-1" d="M623.626,174.999a64.18929,64.18929,0,0,0,19.31641-3.03223v19.87793a53.242,53.242,0,0,1-11.28711,3.20117,77.889,77.889,0,0,1-14.31836,1.291q-37.51025,0-37.50977-39.53125V89.87207h-16.958V78.19238l18.19336-9.6582,8.98438-26.2793h16.28418v27.627h35.376V89.87207h-35.376v66.48437q0,9.54639,4.77344,14.09375Q615.87549,175,623.626,174.999Z"/><path class="cls-1" d="M717.84961,196.33691q-28.19092,0-42.84375-16.45312-14.65723-16.4502-14.65625-47.22363,0-31.333,15.33008-48.17871,15.32813-16.8457,44.30371-16.8457,19.65088,0,35.376,7.2998l-7.97363,21.22559q-16.73584-6.51123-27.627-6.51367-32.23389,0-32.23145,42.78809,0,20.88867,8.0293,31.38965,8.02881,10.50146,23.52832,10.5a67.51064,67.51064,0,0,0,33.35449-8.75977v23.02246A52.07576,52.07576,0,0,1,737.334,194.54,90.74028,90.74028,0,0,1,717.84961,196.33691Z"/><path class="cls-1" d="M844.6416,67.63574a63.6484,63.6484,0,0,1,13.13965,1.123l-2.583,24.59473a49.89028,49.89028,0,0,0-11.67969-1.34766q-15.835,0-25.66113,10.332-9.8291,10.33447-9.82715,26.84082v64.91211h-26.3916V69.88184h20.66406l3.48145,21.89941h1.34766A49.19253,49.19253,0,0,1,823.248,74.14941,38.31473,38.31473,0,0,1,844.6416,67.63574Z"/><path class="cls-1" d="M958.51855,194.09082l-5.27832-17.29492h-.89844q-8.98682,11.34521-18.08105,15.44141-9.09668,4.09863-23.35937,4.09961-18.30615,0-28.582-9.88281-10.27441-9.88037-10.27539-27.96387,0-19.2041,14.2627-28.97461,14.26025-9.77051,43.46191-10.66895l21.4502-.67383v-6.626q0-11.90186-5.55957-17.7998-5.55762-5.89746-17.23828-5.89648a59.65416,59.65416,0,0,0-18.30566,2.80762,138.45963,138.45963,0,0,0-16.8457,6.626L884.73438,78.417a91.87163,91.87163,0,0,1,22.124-8.0293,101.82255,101.82255,0,0,1,22.68555-2.752q23.69385,0,35.76953,10.332,12.07031,10.33447,12.07227,32.45605v83.667Zm-39.30664-17.96875q14.37451,0,23.07813-8.0293,8.70264-8.02881,8.7041-22.51758V134.79395l-15.94727.67383q-18.64307.67383-27.12207,6.23242-8.48,5.56055-8.47852,17.01465,0,8.313,4.94141,12.8584Q909.32861,176.123,919.21191,176.12207Z"/><path class="cls-1" d="M1116.082,194.09082l-16.05957-57.94922q-2.92236-9.20654-10.55664-42.78809h-1.01074q-6.51416,30.32227-10.332,43.0127l-16.50879,57.72461H1032.415l-34.81445-124.209h26.95313l15.835,61.20605q5.39063,22.686,7.63672,38.85742h.67383q1.1206-8.1958,3.4248-18.81152,2.30127-10.61133,3.9873-15.89062l18.86719-65.36133h28.97461l18.30566,65.36133q1.68457,5.50342,4.21094,16.8457a129.573,129.573,0,0,1,2.97656,17.63184h.89844q1.68457-13.81348,7.86133-38.63281l16.05957-61.20605h26.50391l-35.03906,124.209Z"/><path class="cls-1" d="M1228.499,194.09082h-26.3916V19.34473h26.3916Z"/></g></g><g id="logo"><polygon class="cls-1" points="83.615 106.75 83.615 149.25 120.42 170.5 157.225 149.25 157.225 106.75 120.42 85.5 83.615 106.75"/><polygon class="cls-2" points="194.03 43 194.03 85.5 230.84 106.75 230.84 64.25 194.03 43"/><polygon class="cls-1" points="194.03 128 194.03 170.5 157.225 191.75 120.42 213 83.615 191.75 46.81 170.5 46.81 213 83.615 234.25 120.42 255.5 157.225 234.25 194.03 213 230.84 191.75 230.84 149.25 230.84 106.75 194.03 85.5 194.03 128"/><path class="cls-2" d="M120.42,43,83.615,64.25,46.81,85.5v85l36.805,21.25L120.42,213l36.805-21.25L194.03,170.5v-85L157.225,64.25Zm36.805,106.25L120.42,170.5,83.615,149.25v-42.5L120.42,85.5l36.805,21.25Z"/><polygon class="cls-2" points="10 149.25 10 191.75 46.81 213 46.81 170.5 10 149.25"/><polygon class="cls-1" points="46.81 128 46.81 85.5 83.615 64.25 120.42 43 157.225 64.25 194.03 85.5 194.03 43 157.225 21.75 120.42 0.5 83.615 21.75 46.81 43 10 64.25 10 106.75 10 149.25 46.81 170.5 46.81 128"/></g></svg>